<?xml version="1.0" encoding="windows-1252"?>
<!-- Generator: Adobe Illustrator 10.0.3, SVG Export Plug-In . SVG Version: 3.0.0 Build 77)  -->
<!DOCTYPE svg PUBLIC "-//W3C//DTD SVG 1.0//EN" "http://www.w3.org/TR/2001/REC-SVG-20010904/DTD/svg10.dtd" [
	<!ENTITY ns_flows "http://ns.adobe.com/Flows/1.0/">
	<!ENTITY ns_svg "http://www.w3.org/2000/svg">
	<!ENTITY ns_xlink "http://www.w3.org/1999/xlink">
]>
<svg xmlns="http://www.w3.org/2000/svg" xmlns:xlink="http://www.w3.org/1999/xlink" xmlns:a="http://ns.adobe.com/AdobeSVGViewerExtensions/3.0/" width="128" height="128" viewBox="0 0 128 128" overflow="visible" enable-background="new 0 0 128 128" xml:space="preserve">
	<g id="Layer_1">
		<g>
			<linearGradient id="XMLID_1_" gradientUnits="userSpaceOnUse" x1="43.7568" y1="21.3638" x2="40.0921" y2="11.6785">
				<stop offset="0" style="stop-color:#9E9E9E"/>
				<stop offset="1" style="stop-color:#616161"/>
				
			</linearGradient>
			<path fill="url(#XMLID_1_)" d="M48.832,22.706l-7.241,0.143L31.759,1.727L39,1.584L48.832,22.706z"/>
			<linearGradient id="XMLID_2_" gradientUnits="userSpaceOnUse" x1="46.0103" y1="51.3281" x2="79.5314" y2="99.6606">
				<stop offset="0.3427" style="stop-color:#FFFFFF"/>
				<stop offset="1" style="stop-color:#B3B3B3"/>
				
			</linearGradient>
			<path fill="url(#XMLID_2_)" d="M71.392,14.326c-16.33-9.111-53.955,2.89-56.843,11.561     c-2.892,8.671-13.768,115.145,65.516,97.307C157.138,105.853,87.725,23.439,71.392,14.326z"/>
			<linearGradient id="XMLID_3_" gradientUnits="userSpaceOnUse" x1="60.8398" y1="62.687" x2="99.1564" y2="102.873">
				<stop offset="0.0169" style="stop-color:#FFFFFF"/>
				<stop offset="1" style="stop-color:#B3B3B3"/>
				
			</linearGradient>
			<path fill="url(#XMLID_3_)" d="M71.525,14.522c-14.481-7.746-47.833,2.458-50.395,9.83c-2.562,7.368-12.202,97.869,58.078,82.712     C147.536,92.32,86,22.267,71.525,14.522z"/>
			<linearGradient id="XMLID_4_" gradientUnits="userSpaceOnUse" x1="32.6084" y1="14.0947" x2="79.4718" y2="60.9578">
				<stop offset="0.0337" style="stop-color:#E8F000"/>
				<stop offset="1" style="stop-color:#7C00F0"/>
				
			</linearGradient>
			<path fill="url(#XMLID_4_)" d="M60.987,54.27c19.198-4.141,24.883-14.035,23.885-25.154c-6.61-7.676-13.005-13.341-16.562-15.243     c-14.478-7.746-47.828,2.458-50.391,9.829c-0.159,0.457-0.349,1.242-0.54,2.305C21.344,43.749,32.544,60.408,60.987,54.27z"/>
			
				<linearGradient id="XMLID_5_" gradientUnits="userSpaceOnUse" x1="-468.2529" y1="65.0283" x2="-468.2529" y2="48.1833" gradientTransform="matrix(0.8882 -0.4595 0.4595 0.8882 435.5004 -243.0717)">
				<stop offset="0" style="stop-color:#9E9E9E"/>
				<stop offset="1" style="stop-color:#616161"/>
				
			</linearGradient>
			<path fill="url(#XMLID_5_)" d="M49.174,28.05l-0.988,0.51l-8.104-15.669l0.985-0.51L49.174,28.05z"/>
			<path fill="#FFFFFF" d="M50.298,28.05l-0.988,0.51l-8.104-15.669l0.988-0.51L50.298,28.05z"/>
			<linearGradient id="XMLID_6_" gradientUnits="userSpaceOnUse" x1="64.0005" y1="137.8799" x2="64.0005" y2="26.7441">
				<stop offset="0" style="stop-color:#9E9E9E"/>
				<stop offset="1" style="stop-color:#616161"/>
				
			</linearGradient>
			<path fill="url(#XMLID_6_)" d="M27.826,15.339c-3.818,1.481-12.865,5.436-14.44,10.163c-1.427,4.278-9.03,59.207,15.756,86.615     c11.862,13.117,29.084,17.245,51.19,12.274c21.769-4.9,33.962-15.345,36.234-31.036c4.62-31.905-33.818-74.095-44.578-80.1     C61.057,7.157,41.432,10.06,27.826,15.339z M30.96,110.475C8.432,85.564,13.372,33.29,15.707,26.277     c0.854-2.557,5.836-5.873,13.002-8.653c13.507-5.24,32.299-7.689,42.086-2.228c5.7,3.182,17.832,15.519,27.488,29.903     c12.077,17.985,17.709,34.926,15.858,47.704c-2.111,14.587-13.667,24.342-34.351,28.996     C58.614,126.763,42.185,122.891,30.96,110.475z"/>
			<g>
				<g>
					
						<linearGradient id="XMLID_7_" gradientUnits="userSpaceOnUse" x1="-406.603" y1="1.8354" x2="-390.646" y2="1.8354" gradientTransform="matrix(0.7497 -0.3145 0.4116 0.9811 352.5457 -86.8152)">
						<stop offset="0" style="stop-color:#FFFFFF;stop-opacity:0"/>
						<stop offset="1" style="stop-color:#0D2D7D"/>
						
					</linearGradient>
					<path fill="url(#XMLID_7_)" d="M48.552,26.288c-3.298,1.382-3.334,8.818-0.082,16.573c3.253,7.756,8.584,12.941,11.88,11.557       c3.301-1.384,3.337-8.819,0.083-16.576C57.18,30.089,51.85,24.902,48.552,26.288z M60.083,53.779       c-3.153,1.324-8.229-3.616-11.341-11.032c-3.108-7.415-3.076-14.498,0.077-15.821c3.152-1.322,8.231,3.616,11.341,11.032       C63.271,45.375,63.237,52.458,60.083,53.779z"/>
					
						<radialGradient id="XMLID_8_" cx="-476.0503" cy="293.5645" r="38.1038" fx="-476.0503" fy="293.5645" gradientTransform="matrix(0.3283 -0.1377 0.3239 0.7722 124.323 -231.0291)" gradientUnits="userSpaceOnUse">
						<stop offset="0" style="stop-color:#B8D9FF"/>
						<stop offset="1" style="stop-color:#0D2DBB"/>
						
					</radialGradient>
					<path fill="url(#XMLID_8_)" d="M49.087,27.565c-2.998,1.259-3.03,8.019-0.073,15.067c2.958,7.053,7.804,11.764,10.803,10.508       c2.996-1.259,3.03-8.016,0.072-15.068C56.931,31.021,52.085,26.308,49.087,27.565z"/>
					
						<radialGradient id="XMLID_9_" cx="-475.1709" cy="285.7266" r="44.196" fx="-475.1709" fy="285.7266" gradientTransform="matrix(0.3283 -0.1377 0.3239 0.7722 124.323 -231.0291)" gradientUnits="userSpaceOnUse">
						<stop offset="0" style="stop-color:#2D58A4"/>
						<stop offset="1" style="stop-color:#0D2D60"/>

					</radialGradient>
					<path fill="url(#XMLID_9_)" d="M48.819,26.926c-3.153,1.323-3.186,8.406-0.077,15.821c3.111,7.416,8.188,12.356,11.341,11.032       c3.154-1.321,3.188-8.403,0.077-15.821C57.051,30.542,51.972,25.604,48.819,26.926z M59.816,53.14       c-2.999,1.256-7.845-3.455-10.803-10.508c-2.957-7.048-2.925-13.808,0.073-15.067c2.998-1.257,7.844,3.456,10.802,10.506       C62.847,45.125,62.812,51.881,59.816,53.14z"/>
					
						<linearGradient id="XMLID_10_" gradientUnits="userSpaceOnUse" x1="180.751" y1="-12.7461" x2="198.9102" y2="-12.7461" gradientTransform="matrix(0.9877 0.1254 -0.1391 0.9774 -134.8168 29.0061)">
						<stop offset="0" style="stop-color:#FFFFFF;stop-opacity:0"/>
						<stop offset="1" style="stop-color:#0D2D7D"/>

					</linearGradient>
					<path fill="url(#XMLID_10_)" d="M48.819,26.926c-3.153,1.323-3.186,8.406-0.077,15.821c3.111,7.416,8.188,12.356,11.341,11.032       c3.154-1.321,3.188-8.403,0.077-15.821C57.051,30.542,51.972,25.604,48.819,26.926z M59.816,53.14       c-2.999,1.256-7.845-3.455-10.803-10.508c-2.957-7.048-2.925-13.808,0.073-15.067c2.998-1.257,7.844,3.456,10.802,10.506       C62.847,45.125,62.812,51.881,59.816,53.14z"/>
				</g>
				
					<linearGradient id="XMLID_11_" gradientUnits="userSpaceOnUse" x1="-398.9868" y1="-10.7988" x2="-398.9868" y2="3.0255" gradientTransform="matrix(0.7497 -0.3145 0.4116 0.9811 352.5457 -86.8152)">
					<stop offset="0" style="stop-color:#FFFFFF"/>
					<stop offset="1" style="stop-color:#FFFFFF;stop-opacity:0"/>
					
				</linearGradient>
				<path fill="url(#XMLID_11_)" a:adobe-blending-mode="screen" d="M54.56,40.817c0.559-4.724,2.045-6.872,2.763-7.655      c-2.797-4.266-6.084-6.681-8.335-5.737c-3.044,1.277-3.034,8.224,0.022,15.513c0.482,1.145,1.008,2.229,1.567,3.24      C51.636,46.198,53.987,45.68,54.56,40.817z"/>
			</g>
			<linearGradient id="XMLID_12_" gradientUnits="userSpaceOnUse" x1="71.126" y1="80.4756" x2="84.9826" y2="102.0658">
				<stop offset="0" style="stop-color:#FFFFFF"/>
				<stop offset="1" style="stop-color:#FFFFFF;stop-opacity:0"/>
				
			</linearGradient>
			<path fill="url(#XMLID_12_)" a:adobe-blending-mode="screen" d="M101.899,57.636c0.235,1.634-4.355-6.656-6.076-7.086     c-24.658-6.153-7.081,28.476-26.356,39.657c-19.647,11.396-32.328,4.603-39.824-3.887c5.458,13.411,20.277,23.032,37.716,23.032     c22.071,0,39.961-15.408,39.961-34.416C107.319,68.627,105.339,62.722,101.899,57.636z"/>
		</g>
		<path fill="none" d="M128,128H0V0h128V128z"/>
	</g>
</svg>